/* XPM */
static char *dummy[]={
"16 16 3 1",
". c #000000",
"# c #2121ff",
"a c #ffb8ae",
"................",
"......####......",
"....########....",
"...##########...",
"..############..",
"..############..",
"..###aa##aa###..",
".####aa##aa####.",
".##############.",
".##############.",
".##aa##aa##aa##.",
".#a##aa##aa##a#.",
".##############.",
".####.####.####.",
"..##...##...##..",
"................"};
