/* XPM */
static char *dummy[]={
"16 16 5 1",
"# c #000000",
"c c #0000ff",
". c #00ff00",
"a c #808080",
"b c #ffffff",
"................",
".####aaaaaa####.",
".###abbbbbba###.",
".###abbbbbba###.",
".##aabbbbbbaa##.",
".#abbabbbbabba#.",
".abbbbbbbbbbbba.",
".abbbbbbbbbbbba.",
".abbbbbbbbbbbba.",
".#abbbbbbbbbba#.",
".##aaaaaaaaaa##.",
".###c###c###c##.",
".##c###c###c###.",
".#c###c###c####.",
".c###c###c#####.",
"................"};
