/* XPM */
static char *dummy[]={
"16 16 13 1",
"# c #000000",
". c #00ff00",
"a c #ffff00",
"e c #ffff06",
"f c #ffff07",
"d c #ffff46",
"g c #ffff49",
"k c #ffff4c",
"i c #ffff7f",
"c c #ffff80",
"b c #ffffb4",
"h c #ffffb5",
"j c #ffffb6",
"................",
".#a##########a#.",
".##a########a##.",
".####bccccb####.",
".###deaaaafg###.",
".##bfaaaaaaeh##.",
".##caaaaaaaai##.",
".##caaaaaaaai##.",
".aacaaaaaaaaiaa.",
".##caaaaaaaai##.",
".##beaaaaaafj##.",
".###gfaaaaek###.",
".####hiiiij####.",
".###a######a###.",
".##a########a##.",
"................"};
